<mxfile host="Electron" modified="2023-04-10T15:28:55.581Z" agent="Mozilla/5.0 (Windows NT 10.0; Win64; x64) AppleWebKit/537.36 (KHTML, like Gecko) draw.io/21.1.2 Chrome/106.0.5249.199 Electron/21.4.3 Safari/537.36" etag="MCX7VVpQvpSvtNwO_kqG" version="21.1.2" type="device">
  <diagram name="Page-1" id="b5b7bab2-c9e2-2cf4-8b2a-24fd1a2a6d21">
    <mxGraphModel dx="1434" dy="844" grid="1" gridSize="10" guides="1" tooltips="1" connect="1" arrows="1" fold="1" page="1" pageScale="1" pageWidth="1169" pageHeight="827" background="none" math="0" shadow="0">
      <root>
        <mxCell id="0" />
        <mxCell id="1" parent="0" />
        <mxCell id="dPghv679WSKlHObFAlVv-6" value="&lt;h1&gt;&lt;font style=&quot;font-size: 24px;&quot;&gt;Automotive Door Control System Design&lt;/font&gt;&lt;/h1&gt;" style="text;html=1;spacing=5;spacingTop=-20;whiteSpace=wrap;overflow=hidden;rounded=0;align=center;strokeWidth=4;verticalAlign=top;fillColor=#f5f5f5;fontColor=#333333;strokeColor=#666666;" vertex="1" parent="1">
          <mxGeometry x="412" y="50" width="345" height="70" as="geometry" />
        </mxCell>
        <mxCell id="dPghv679WSKlHObFAlVv-26" style="edgeStyle=orthogonalEdgeStyle;rounded=0;orthogonalLoop=1;jettySize=auto;html=1;entryX=-0.015;entryY=0.186;entryDx=0;entryDy=0;entryPerimeter=0;" edge="1" parent="1" source="dPghv679WSKlHObFAlVv-14" target="dPghv679WSKlHObFAlVv-1">
          <mxGeometry relative="1" as="geometry" />
        </mxCell>
        <mxCell id="dPghv679WSKlHObFAlVv-58" value="5ms" style="edgeLabel;html=1;align=center;verticalAlign=middle;resizable=0;points=[];fontColor=#FF0000;" vertex="1" connectable="0" parent="dPghv679WSKlHObFAlVv-26">
          <mxGeometry x="-0.1849" y="-1" relative="1" as="geometry">
            <mxPoint y="-1" as="offset" />
          </mxGeometry>
        </mxCell>
        <mxCell id="dPghv679WSKlHObFAlVv-14" value="Speed Sensor&lt;br&gt;(S)" style="html=1;whiteSpace=wrap;strokeWidth=5;fontSize=14;fontStyle=1;" vertex="1" parent="1">
          <mxGeometry x="102" y="276" width="110" height="50" as="geometry" />
        </mxCell>
        <mxCell id="dPghv679WSKlHObFAlVv-24" style="edgeStyle=orthogonalEdgeStyle;rounded=0;orthogonalLoop=1;jettySize=auto;html=1;entryX=0;entryY=0.513;entryDx=0;entryDy=0;entryPerimeter=0;" edge="1" parent="1" source="dPghv679WSKlHObFAlVv-15" target="dPghv679WSKlHObFAlVv-1">
          <mxGeometry relative="1" as="geometry" />
        </mxCell>
        <mxCell id="dPghv679WSKlHObFAlVv-59" value="10ms" style="edgeLabel;html=1;align=center;verticalAlign=middle;resizable=0;points=[];fontColor=#CC0000;" vertex="1" connectable="0" parent="dPghv679WSKlHObFAlVv-24">
          <mxGeometry x="-0.1246" y="-1" relative="1" as="geometry">
            <mxPoint y="-1" as="offset" />
          </mxGeometry>
        </mxCell>
        <mxCell id="dPghv679WSKlHObFAlVv-15" value="Door Sensor&lt;br&gt;(D)" style="html=1;whiteSpace=wrap;strokeWidth=5;fontSize=14;fontStyle=1;" vertex="1" parent="1">
          <mxGeometry x="102" y="356" width="110" height="50" as="geometry" />
        </mxCell>
        <mxCell id="dPghv679WSKlHObFAlVv-16" value="" style="group" vertex="1" connectable="0" parent="1">
          <mxGeometry x="298" y="210" width="130" height="290" as="geometry" />
        </mxCell>
        <mxCell id="dPghv679WSKlHObFAlVv-1" value="" style="rounded=1;whiteSpace=wrap;html=1;strokeWidth=4;" vertex="1" parent="dPghv679WSKlHObFAlVv-16">
          <mxGeometry y="45.78947368421053" width="130" height="244.21052631578948" as="geometry" />
        </mxCell>
        <mxCell id="dPghv679WSKlHObFAlVv-5" value="&lt;font color=&quot;#0000ff&quot; style=&quot;font-size: 18px;&quot;&gt;&lt;span style=&quot;font-size: 18px;&quot;&gt;ECU 1&lt;/span&gt;&lt;/font&gt;" style="text;html=1;strokeColor=none;fillColor=none;align=center;verticalAlign=middle;whiteSpace=wrap;rounded=0;fontSize=18;fontStyle=1" vertex="1" parent="dPghv679WSKlHObFAlVv-16">
          <mxGeometry x="30" width="70" height="45.79" as="geometry" />
        </mxCell>
        <mxCell id="dPghv679WSKlHObFAlVv-28" value="ADC" style="ellipse;whiteSpace=wrap;html=1;fontStyle=1" vertex="1" parent="dPghv679WSKlHObFAlVv-16">
          <mxGeometry x="25" y="76" width="80" height="40" as="geometry" />
        </mxCell>
        <mxCell id="dPghv679WSKlHObFAlVv-29" value="GPIO" style="ellipse;whiteSpace=wrap;html=1;fontStyle=1" vertex="1" parent="dPghv679WSKlHObFAlVv-16">
          <mxGeometry x="25" y="125" width="80" height="40" as="geometry" />
        </mxCell>
        <mxCell id="dPghv679WSKlHObFAlVv-30" value="CAN" style="ellipse;whiteSpace=wrap;html=1;fontStyle=1" vertex="1" parent="dPghv679WSKlHObFAlVv-16">
          <mxGeometry x="25" y="176" width="80" height="40" as="geometry" />
        </mxCell>
        <mxCell id="dPghv679WSKlHObFAlVv-31" value="Timer" style="ellipse;whiteSpace=wrap;html=1;fontStyle=1" vertex="1" parent="dPghv679WSKlHObFAlVv-16">
          <mxGeometry x="25" y="226" width="80" height="40" as="geometry" />
        </mxCell>
        <mxCell id="dPghv679WSKlHObFAlVv-25" style="edgeStyle=orthogonalEdgeStyle;rounded=0;orthogonalLoop=1;jettySize=auto;html=1;entryX=-0.01;entryY=0.839;entryDx=0;entryDy=0;entryPerimeter=0;" edge="1" parent="1" source="dPghv679WSKlHObFAlVv-20" target="dPghv679WSKlHObFAlVv-1">
          <mxGeometry relative="1" as="geometry" />
        </mxCell>
        <mxCell id="dPghv679WSKlHObFAlVv-60" value="20ms" style="edgeLabel;html=1;align=center;verticalAlign=middle;resizable=0;points=[];fontColor=#FF0000;" vertex="1" connectable="0" parent="dPghv679WSKlHObFAlVv-25">
          <mxGeometry x="-0.203" y="1" relative="1" as="geometry">
            <mxPoint as="offset" />
          </mxGeometry>
        </mxCell>
        <mxCell id="dPghv679WSKlHObFAlVv-20" value="Light Switch&lt;br&gt;(L)" style="html=1;whiteSpace=wrap;strokeWidth=5;fontSize=14;fontStyle=1;" vertex="1" parent="1">
          <mxGeometry x="102" y="436" width="110" height="50" as="geometry" />
        </mxCell>
        <mxCell id="dPghv679WSKlHObFAlVv-32" value="CAN Transceiver 1" style="rounded=0;whiteSpace=wrap;html=1;fillColor=#ffe6cc;strokeColor=#d79b00;strokeWidth=2;fontStyle=1" vertex="1" parent="1">
          <mxGeometry x="458" y="358.84" width="80" height="38.11" as="geometry" />
        </mxCell>
        <mxCell id="dPghv679WSKlHObFAlVv-33" value="" style="edgeStyle=orthogonalEdgeStyle;rounded=0;orthogonalLoop=1;jettySize=auto;html=1;" edge="1" parent="1" source="dPghv679WSKlHObFAlVv-1" target="dPghv679WSKlHObFAlVv-32">
          <mxGeometry relative="1" as="geometry" />
        </mxCell>
        <mxCell id="dPghv679WSKlHObFAlVv-36" value="Left Light&lt;br&gt;(LL)" style="html=1;whiteSpace=wrap;strokeWidth=5;fontSize=14;fontStyle=1;" vertex="1" parent="1">
          <mxGeometry x="958" y="260" width="110" height="50" as="geometry" />
        </mxCell>
        <mxCell id="dPghv679WSKlHObFAlVv-38" value="Buzzer&lt;br&gt;(B)" style="html=1;whiteSpace=wrap;strokeWidth=5;fontSize=14;fontStyle=1;" vertex="1" parent="1">
          <mxGeometry x="958" y="340" width="110" height="50" as="geometry" />
        </mxCell>
        <mxCell id="dPghv679WSKlHObFAlVv-39" value="" style="group" vertex="1" connectable="0" parent="1">
          <mxGeometry x="788" y="210" width="130" height="290" as="geometry" />
        </mxCell>
        <mxCell id="dPghv679WSKlHObFAlVv-40" value="" style="rounded=1;whiteSpace=wrap;html=1;strokeWidth=4;" vertex="1" parent="dPghv679WSKlHObFAlVv-39">
          <mxGeometry y="45.78947368421053" width="130" height="244.21052631578948" as="geometry" />
        </mxCell>
        <mxCell id="dPghv679WSKlHObFAlVv-41" value="&lt;font size=&quot;1&quot; color=&quot;#0000ff&quot; style=&quot;&quot;&gt;&lt;b style=&quot;font-size: 18px;&quot;&gt;ECU 2&lt;/b&gt;&lt;/font&gt;" style="text;html=1;strokeColor=none;fillColor=none;align=center;verticalAlign=middle;whiteSpace=wrap;rounded=0;" vertex="1" parent="dPghv679WSKlHObFAlVv-39">
          <mxGeometry x="30" width="70" height="45.79" as="geometry" />
        </mxCell>
        <mxCell id="dPghv679WSKlHObFAlVv-43" value="GPIO" style="ellipse;whiteSpace=wrap;html=1;fontStyle=1" vertex="1" parent="dPghv679WSKlHObFAlVv-39">
          <mxGeometry x="25" y="80" width="80" height="40" as="geometry" />
        </mxCell>
        <mxCell id="dPghv679WSKlHObFAlVv-44" value="CAN" style="ellipse;whiteSpace=wrap;html=1;fontStyle=1" vertex="1" parent="dPghv679WSKlHObFAlVv-39">
          <mxGeometry x="25" y="147.89" width="80" height="40" as="geometry" />
        </mxCell>
        <mxCell id="dPghv679WSKlHObFAlVv-45" value="Timer" style="ellipse;whiteSpace=wrap;html=1;fontStyle=1" vertex="1" parent="dPghv679WSKlHObFAlVv-39">
          <mxGeometry x="25" y="210" width="80" height="40" as="geometry" />
        </mxCell>
        <mxCell id="dPghv679WSKlHObFAlVv-47" value="Right Light&lt;br&gt;(RL)" style="html=1;whiteSpace=wrap;strokeWidth=5;fontSize=14;fontStyle=1;" vertex="1" parent="1">
          <mxGeometry x="958" y="420" width="110" height="50" as="geometry" />
        </mxCell>
        <mxCell id="dPghv679WSKlHObFAlVv-51" style="edgeStyle=orthogonalEdgeStyle;rounded=0;orthogonalLoop=1;jettySize=auto;html=1;entryX=0;entryY=0.5;entryDx=0;entryDy=0;" edge="1" parent="1" source="dPghv679WSKlHObFAlVv-48" target="dPghv679WSKlHObFAlVv-40">
          <mxGeometry relative="1" as="geometry" />
        </mxCell>
        <mxCell id="dPghv679WSKlHObFAlVv-48" value="CAN Transceiver 2" style="rounded=0;whiteSpace=wrap;html=1;fillColor=#ffe6cc;strokeColor=#d79b00;strokeWidth=2;fontStyle=1" vertex="1" parent="1">
          <mxGeometry x="678" y="358.84" width="80" height="38.11" as="geometry" />
        </mxCell>
        <mxCell id="dPghv679WSKlHObFAlVv-52" value="" style="rounded=0;whiteSpace=wrap;html=1;fillColor=#d79b00;strokeColor=#D79B00;strokeWidth=1;" vertex="1" parent="1">
          <mxGeometry x="538" y="373.82" width="140" height="8.16" as="geometry" />
        </mxCell>
        <mxCell id="dPghv679WSKlHObFAlVv-53" value="CAN Bus" style="text;html=1;strokeColor=none;fillColor=none;align=center;verticalAlign=middle;whiteSpace=wrap;rounded=0;fontStyle=1" vertex="1" parent="1">
          <mxGeometry x="578" y="351.98" width="60" height="30" as="geometry" />
        </mxCell>
        <mxCell id="dPghv679WSKlHObFAlVv-54" value="" style="endArrow=classic;html=1;rounded=0;exitX=1.003;exitY=0.121;exitDx=0;exitDy=0;exitPerimeter=0;entryX=0;entryY=0.5;entryDx=0;entryDy=0;" edge="1" parent="1" source="dPghv679WSKlHObFAlVv-40" target="dPghv679WSKlHObFAlVv-36">
          <mxGeometry width="50" height="50" relative="1" as="geometry">
            <mxPoint x="928" y="270" as="sourcePoint" />
            <mxPoint x="978" y="220" as="targetPoint" />
          </mxGeometry>
        </mxCell>
        <mxCell id="dPghv679WSKlHObFAlVv-55" value="" style="endArrow=classic;html=1;rounded=0;exitX=1.007;exitY=0.445;exitDx=0;exitDy=0;exitPerimeter=0;entryX=0;entryY=0.5;entryDx=0;entryDy=0;" edge="1" parent="1" source="dPghv679WSKlHObFAlVv-40" target="dPghv679WSKlHObFAlVv-38">
          <mxGeometry width="50" height="50" relative="1" as="geometry">
            <mxPoint x="918" y="366.83" as="sourcePoint" />
            <mxPoint x="948" y="370" as="targetPoint" />
          </mxGeometry>
        </mxCell>
        <mxCell id="dPghv679WSKlHObFAlVv-56" value="" style="endArrow=classic;html=1;rounded=0;entryX=0;entryY=0.5;entryDx=0;entryDy=0;exitX=1;exitY=0.775;exitDx=0;exitDy=0;exitPerimeter=0;" edge="1" parent="1" source="dPghv679WSKlHObFAlVv-40" target="dPghv679WSKlHObFAlVv-47">
          <mxGeometry width="50" height="50" relative="1" as="geometry">
            <mxPoint x="928" y="440" as="sourcePoint" />
            <mxPoint x="968" y="436" as="targetPoint" />
          </mxGeometry>
        </mxCell>
      </root>
    </mxGraphModel>
  </diagram>
</mxfile>
